<svg width="64" height="64" viewBox="0 0 64 64" fill="none" xmlns="http://www.w3.org/2000/svg">
    <rect width="64" height="64" rx="32" fill="#EEF2FF"/>
    <path d="M32 20C25.3726 20 20 25.3726 20 32C20 38.6274 25.3726 44 32 44C38.6274 44 44 38.6274 44 32C44 25.3726 38.6274 20 32 20ZM32 40C27.5817 40 24 36.4183 24 32C24 27.5817 27.5817 24 32 24C36.4183 24 40 27.5817 40 32C40 36.4183 36.4183 40 32 40Z" fill="#6366F1"/>
    <path d="M32 28L32 32L36 36" stroke="#6366F1" stroke-width="2" stroke-linecap="round" stroke-linejoin="round"/>
    <path d="M28 20H36" stroke="#6366F1" stroke-width="2" stroke-linecap="round"/>
    <path d="M28 44H36" stroke="#6366F1" stroke-width="2" stroke-linecap="round"/>
</svg> 