<svg xmlns="http://www.w3.org/2000/svg" xmlns:xlink="http://www.w3.org/1999/xlink" width="512" zoomAndPan="magnify" viewBox="0 0 384 383.999986" height="512" preserveAspectRatio="xMidYMid meet" version="1.2"><defs><clipPath id="84112546e3"><path d="M 96.769531 206 L 287.269531 206 L 287.269531 345.898438 L 96.769531 345.898438 Z M 96.769531 206 "/></clipPath><clipPath id="1ab06e61a6"><path d="M 126 38.398438 L 258 38.398438 L 258 273 L 126 273 Z M 126 38.398438 "/></clipPath></defs><g id="c56db023c1"><g clip-rule="nonzero" clip-path="url(#84112546e3)"><path style=" stroke:none;fill-rule:nonzero;fill:#ffffff;fill-opacity:1;" d="M 287.078125 206.652344 L 272.425781 206.652344 C 272.425781 248.746094 234.058594 287.113281 191.960938 287.113281 C 149.867188 287.113281 111.566406 248.746094 111.566406 206.652344 L 96.910156 206.652344 C 96.910156 254.851562 137.144531 297.394531 184.699219 301.445312 L 184.699219 331.007812 L 162.785156 331.007812 L 162.785156 345.59375 L 221.269531 345.59375 L 221.269531 330.941406 L 199.351562 330.941406 L 199.351562 301.378906 C 246.847656 297.394531 287.078125 254.851562 287.078125 206.652344 Z M 287.078125 206.652344 "/></g><g clip-rule="nonzero" clip-path="url(#1ab06e61a6)"><path style=" stroke:none;fill-rule:nonzero;fill:#ffffff;fill-opacity:1;" d="M 192.027344 272.460938 C 228.335938 272.460938 257.835938 242.960938 257.835938 206.652344 L 257.835938 104.210938 C 257.835938 67.960938 228.273438 38.398438 192.027344 38.398438 C 155.78125 38.398438 126.152344 67.960938 126.152344 104.210938 L 126.152344 206.585938 C 126.152344 242.898438 155.714844 272.460938 192.027344 272.460938 Z M 140.804688 104.210938 C 140.804688 75.996094 163.75 52.988281 192.027344 52.988281 C 220.238281 52.988281 243.246094 75.933594 243.246094 104.210938 L 243.246094 206.585938 C 243.246094 234.800781 220.304688 257.808594 192.027344 257.808594 C 163.8125 257.808594 140.804688 234.863281 140.804688 206.585938 Z M 140.804688 104.210938 "/></g></g></svg>